<svg xmlns:inkscape="http://www.inkscape.org/namespaces/inkscape" xmlns:sodipodi="http://sodipodi.sourceforge.net/DTD/sodipodi-0.dtd" xmlns="http://www.w3.org/2000/svg" xmlns:svg="http://www.w3.org/2000/svg" version="1.1" id="svg57" width="100" height="100" viewBox="0 0 400 400" sodipodi:docname="ps_vector_v2.svg" inkscape:version="1.1.1 (c3084ef, 2021-09-22)" role="img" aria-labelledby="ame6eenyeuug7y33u3sfg3s2k0j5oe4c" class="fill-current text-gray-700 hover:text-gray-800"><title id="ame6eenyeuug7y33u3sfg3s2k0j5oe4c">Logo</title>
<defs id="defs61"></defs>
<sodipodi:namedview id="namedview59" pagecolor="#ffffff" bordercolor="#666666" borderopacity="1.0" inkscape:pageshadow="2" inkscape:pageopacity="0.0" inkscape:pagecheckerboard="0" showgrid="false" inkscape:zoom="2.135" inkscape:cx="199.76581" inkscape:cy="200.23419" inkscape:window-width="2091" inkscape:window-height="1237" inkscape:window-x="1706" inkscape:window-y="25" inkscape:window-maximized="0" inkscape:current-layer="g63"></sodipodi:namedview>
<g inkscape:groupmode="layer" inkscape:label="Image" id="g63" transform="translate(-54.566746,0.23419204)">
<g id="g529">
<path style="fill:#d0d0d0;fill-opacity:1" d="m 293.97174,187.51581 -1.90499,-2.25 2.25,1.90499 c 2.11444,1.79022 2.70524,2.59501 1.90499,2.59501 -0.18976,0 -1.20226,-1.0125 -2.25,-2.25 z m 86.59501,-37.44365 c 18.3729,-0.71326 37.77356,-0.74253 37.34757,-0.0564 -0.25608,0.4125 -10.45155,0.65944 -22.65659,0.54876 -12.20504,-0.11064 -18.81598,-0.33222 -14.69098,-0.49236 z" id="path545"></path>
<path style="fill:#b9b9b9;fill-opacity:1" d="m 291.43919,290.01581 c -1.24387,-1.58606 -1.2085,-1.62143 0.37756,-0.37756 0.9625,0.75485 1.75,1.54235 1.75,1.75 0,0.82304 -0.82119,0.29331 -2.12756,-1.37244 z m 33,-24 c -1.24387,-1.58606 -1.2085,-1.62143 0.37756,-0.37756 1.66575,1.30637 2.19548,2.12756 1.37244,2.12756 -0.20765,0 -0.99515,-0.7875 -1.75,-1.75 z" id="path543"></path>
<path style="fill:#a3a3a3;fill-opacity:1" d="m 228.06675,209.76581 c 0.99549,-1.1 2.03498,-2 2.30998,-2 0.275,0 -0.31449,0.9 -1.30998,2 -0.99549,1.1 -2.03498,2 -2.30998,2 -0.275,0 0.31449,-0.9 1.30998,-2 z" id="path541"></path>
<path style="fill:#8c8c8c;fill-opacity:1" d="m 371.7617,249.26581 c 0.0204,-1.65 0.2445,-2.20394 0.49804,-1.23097 0.25354,0.97297 0.23687,2.32297 -0.0371,3 -0.27393,0.67703 -0.48137,-0.11903 -0.46099,-1.76903 z" id="path539"></path>
<path style="fill:#767676;fill-opacity:1" d="m 270.6457,240.18248 c 0.048,-1.16495 0.28494,-1.4019 0.60416,-0.60417 0.28887,0.72187 0.25335,1.58437 -0.0789,1.91667 -0.3323,0.33229 -0.56864,-0.25834 -0.52522,-1.3125 z" id="path537"></path>
<path style="fill:#606060;fill-opacity:1" d="m 271.43501,237.49581 c 0.42446,-0.42351 10.64025,-0.64776 22.70174,-0.49835 l 21.93,0.27167 -22.70175,0.49834 c -12.48596,0.27409 -22.35446,0.15184 -21.92999,-0.27166 z m -118.56916,-8.47528 c 4.83951,-0.18371 12.48951,-0.18277 17,0.002 4.5105,0.18485 0.5509,0.33516 -8.7991,0.33401 -9.35,-0.001 -13.04041,-0.1524 -8.2009,-0.3361 z m -0.50162,-107.99947 c 4.56362,-0.18572 11.76362,-0.18468 16,0.002 4.23639,0.18698 0.50252,0.33893 -8.29748,0.33766 -8.8,-0.001 -12.26614,-0.15425 -7.70252,-0.33996 z m 139.20252,-18.63281 c 0,-0.20765 0.7875,-0.99515 1.75,-1.75 1.58606,-1.243868 1.62143,-1.208498 0.37756,0.37756 -1.30637,1.66575 -2.12756,2.19548 -2.12756,1.37244 z" id="path535"></path>
<path style="fill:#494949;fill-opacity:1" d="m 315.6457,239.18248 c 0.048,-1.16495 0.28494,-1.4019 0.60416,-0.60417 0.28887,0.72187 0.25335,1.58437 -0.0789,1.91667 -0.33229,0.33229 -0.56864,-0.25834 -0.52522,-1.3125 z M 201.72464,158.76581 c 0,-1.375 0.22698,-1.9375 0.50439,-1.25 0.27741,0.6875 0.27741,1.8125 0,2.5 -0.27741,0.6875 -0.50439,0.125 -0.50439,-1.25 z" id="path533"></path>
<path style="fill:#333333;fill-opacity:1" d="m 336.01516,309.74791 c -15.46447,-1.95041 -32.32239,-9.44451 -42.81292,-19.03226 -12.85108,-11.74517 -21.63549,-31.28825 -21.63549,-48.1335 v -4.81634 h 21.95469 21.95468 l 0.49148,3.25 c 0.27031,1.7875 0.73768,5.42828 1.0386,8.09062 1.80951,16.00935 12.26443,24.66045 29.97999,24.80747 12.14292,0.10077 18.33875,-3.05138 22.89536,-11.64809 3.28223,-6.1924 3.06429,-20.04687 -0.43338,-27.54943 -4.0874,-8.76754 -11.241,-13.52075 -35.90474,-23.8569 -31.605,-13.24512 -47.97737,-28.42022 -54.58538,-50.59367 -2.19837,-7.37671 -2.46862,-24.55404 -0.51133,-32.5 3.46734,-14.07624 12.46192,-26.31292 25.71883,-34.989137 24.04772,-15.738466 62.06374,-15.458332 85.68975,0.631432 15.62211,10.638955 25.16522,27.894895 27.27656,49.321715 l 0.69331,7.03599 h -22.62921 -22.62921 v -4.96249 c 0,-7.24878 -3.49478,-15.78321 -8.42115,-20.56486 -4.69394,-4.55606 -9.89914,-6.47265 -17.57885,-6.47265 -14.66086,0 -23.72115,8.44129 -24.77201,23.07959 -0.52835,7.35974 1.29572,12.86511 6.17508,18.63753 4.16273,4.92465 16.44369,12.06942 30.92345,17.99055 24.97696,10.2137 40.06061,20.87034 48.78572,34.46723 7.88328,12.28503 11.37254,31.76338 8.66157,48.35205 -4.97397,30.43605 -27.6063,48.28382 -63.26816,49.89302 -5.50311,0.24832 -13.17887,0.0513 -17.05724,-0.43787 z M 98.566746,195.6854 V 83.604988 l 44.750004,0.40137 c 42.0844,0.377461 45.21712,0.530131 52.59195,2.563016 25.18639,6.942666 42.06812,24.151056 48.75306,49.696436 2.70625,10.34149 2.98622,30.45103 0.57776,41.5 -5.06578,23.23966 -21.07883,40.27797 -45.17277,48.06504 -6.29609,2.03487 -9.48884,2.30637 -31.75,2.69984 l -24.75,0.43747 v 39.39882 39.39883 h -22.5 -22.500004 z m 90.070184,-7.10636 c 9.00318,-5.2929 13.04605,-14.52496 13.10833,-29.93342 0.0688,-17.02157 -5.2283,-28.83808 -15.44822,-34.46115 -5.14666,-2.83172 -5.53011,-2.88379 -23.98029,-3.25603 l -18.75,-0.37828 v 35.68153 35.68154 l 20.25,-0.32371 c 19.90138,-0.31814 20.32868,-0.36996 24.82018,-3.01048 z" id="path531"></path>
</g>
</g>
</svg>
