<svg version="1" xmlns="http://www.w3.org/2000/svg" width="533.333" height="533.333" viewBox="0 0 400.000000 400.000000"><path d="M273.5 83.1c-25 5.3-43.3 21.4-49.5 43.7-1.8 6.5-2.2 25.2-.6 31.5 2.8 11.7 9.6 22.7 19.1 31.5 9.9 9 20.5 15 44.3 25.1 23.8 10 30.4 17.3 30.4 33.2 0 10.2-2.3 17-7 20.9-5 4.1-10.1 5.3-20.3 4.7-17.4-.9-26-9.8-27.7-28.5l-.7-7.7-22-.1c-15.3-.1-22.2.2-22.7 1-.4.6-.5 2.4-.3 4.1.2 1.6.6 5.2.9 8 1.9 17.6 13.3 36.2 28.5 46.5 14.4 9.8 30.4 14.1 50.1 13.5 15.1-.4 18.1-.8 27.3-4 20.1-7.1 34.1-22.2 38.1-41.5 1.8-8.5 1.8-23.9 0-32.6-1.8-8.6-8-21.4-13.4-27.6-3.7-4.3-15.1-13.3-21-16.7-5.4-3.1-16-8.1-25.3-11.9-25.7-10.6-34.9-19.8-34.3-34.4.7-15.5 10.5-24.1 26.5-23.4 14.1.6 22.1 9.1 23.7 25.2.4 3.5 1.1 6.4 1.5 6.5h40.2l4.3-.1-.8-8.1c-3.4-31.5-23.5-53.5-54.2-59.4-9.8-1.9-24.5-1.6-35.1.6zM44 125.2V308h45v-39c0-21.5.3-39 .8-39.1.4 0 10.1-.2 21.7-.3 27.8-.5 39-2.9 52.1-11.5 7.1-4.6 9.7-6.9 15.3-14 5.2-6.6 7.3-10.7 10-19.2 3-9.3 3.2-11.2 3.6-24.5.6-18.9-3-32.5-12.2-46.6-5.9-9-15-17.1-24.8-21.9-14.8-7.2-14.7-7.2-65.7-7.7L44 83.8v41.4zm85.4-1.8c2.4.9 5.9 3.4 7.9 5.5 7.2 7.7 9.9 16.8 9.6 31.8-.2 11-2.8 18.6-8.4 24.3-5.6 5.8-10.1 6.8-31.2 6.9l-18.3.2v-34.9c0-19.2.2-35.1.4-35.3.2-.2 8.3-.4 18-.3 13.8.1 18.5.5 22 1.8z"/></svg>